<mxfile host="app.diagrams.net" modified="2024-06-20T20:54:08.351Z" agent="Mozilla/5.0 (Windows NT 10.0; Win64; x64) AppleWebKit/537.36 (KHTML, like Gecko) Chrome/126.0.0.0 Safari/537.36" etag="29g6rzhNf3kBJ2wXTNiv" version="24.5.5" type="github">
  <diagram name="Página-1" id="2qu_tDNPcgCI74FSG08r">
    <mxGraphModel dx="1050" dy="625" grid="1" gridSize="10" guides="1" tooltips="1" connect="1" arrows="1" fold="1" page="1" pageScale="1" pageWidth="827" pageHeight="1169" math="0" shadow="0">
      <root>
        <mxCell id="0" />
        <mxCell id="1" parent="0" />
        <mxCell id="PvKAuGmHZ8P36Zsu5YNj-2" value="IPHONE" style="html=1;whiteSpace=wrap;" vertex="1" parent="1">
          <mxGeometry x="350" y="100" width="110" height="50" as="geometry" />
        </mxCell>
        <mxCell id="PvKAuGmHZ8P36Zsu5YNj-18" value="name" style="endArrow=block;endFill=1;html=1;edgeStyle=orthogonalEdgeStyle;align=left;verticalAlign=top;rounded=0;exitX=0;exitY=0.5;exitDx=0;exitDy=0;entryX=0.75;entryY=0;entryDx=0;entryDy=0;" edge="1" parent="1" source="PvKAuGmHZ8P36Zsu5YNj-2">
          <mxGeometry x="-1" relative="1" as="geometry">
            <mxPoint x="140" y="150" as="sourcePoint" />
            <mxPoint x="185" y="200" as="targetPoint" />
          </mxGeometry>
        </mxCell>
        <mxCell id="PvKAuGmHZ8P36Zsu5YNj-19" value="1" style="edgeLabel;resizable=0;html=1;align=left;verticalAlign=bottom;" connectable="0" vertex="1" parent="PvKAuGmHZ8P36Zsu5YNj-18">
          <mxGeometry x="-1" relative="1" as="geometry" />
        </mxCell>
        <mxCell id="PvKAuGmHZ8P36Zsu5YNj-27" value="name" style="endArrow=block;endFill=1;html=1;edgeStyle=orthogonalEdgeStyle;align=left;verticalAlign=top;rounded=0;exitX=0.5;exitY=1;exitDx=0;exitDy=0;entryX=0.5;entryY=0;entryDx=0;entryDy=0;" edge="1" parent="1" source="PvKAuGmHZ8P36Zsu5YNj-2">
          <mxGeometry x="-1" relative="1" as="geometry">
            <mxPoint x="330" y="180" as="sourcePoint" />
            <mxPoint x="405" y="197" as="targetPoint" />
          </mxGeometry>
        </mxCell>
        <mxCell id="PvKAuGmHZ8P36Zsu5YNj-28" value="1" style="edgeLabel;resizable=0;html=1;align=left;verticalAlign=bottom;" connectable="0" vertex="1" parent="PvKAuGmHZ8P36Zsu5YNj-27">
          <mxGeometry x="-1" relative="1" as="geometry" />
        </mxCell>
        <mxCell id="PvKAuGmHZ8P36Zsu5YNj-29" value="name" style="endArrow=block;endFill=1;html=1;edgeStyle=orthogonalEdgeStyle;align=left;verticalAlign=top;rounded=0;entryX=0.189;entryY=0.025;entryDx=0;entryDy=0;entryPerimeter=0;" edge="1" parent="1">
          <mxGeometry x="-1" relative="1" as="geometry">
            <mxPoint x="460" y="120" as="sourcePoint" />
            <mxPoint x="616.46" y="199.60000000000002" as="targetPoint" />
          </mxGeometry>
        </mxCell>
        <mxCell id="PvKAuGmHZ8P36Zsu5YNj-30" value="1" style="edgeLabel;resizable=0;html=1;align=left;verticalAlign=bottom;" connectable="0" vertex="1" parent="PvKAuGmHZ8P36Zsu5YNj-29">
          <mxGeometry x="-1" relative="1" as="geometry" />
        </mxCell>
        <mxCell id="PvKAuGmHZ8P36Zsu5YNj-31" value="ReprodutorMusical" style="swimlane;fontStyle=1;align=center;verticalAlign=top;childLayout=stackLayout;horizontal=1;startSize=26;horizontalStack=0;resizeParent=1;resizeParentMax=0;resizeLast=0;collapsible=1;marginBottom=0;whiteSpace=wrap;html=1;" vertex="1" parent="1">
          <mxGeometry x="100" y="200" width="160" height="160" as="geometry" />
        </mxCell>
        <mxCell id="PvKAuGmHZ8P36Zsu5YNj-32" value="-Musica [] musicas" style="text;strokeColor=none;fillColor=none;align=left;verticalAlign=top;spacingLeft=4;spacingRight=4;overflow=hidden;rotatable=0;points=[[0,0.5],[1,0.5]];portConstraint=eastwest;whiteSpace=wrap;html=1;" vertex="1" parent="PvKAuGmHZ8P36Zsu5YNj-31">
          <mxGeometry y="26" width="160" height="34" as="geometry" />
        </mxCell>
        <mxCell id="PvKAuGmHZ8P36Zsu5YNj-33" value="" style="line;strokeWidth=1;fillColor=none;align=left;verticalAlign=middle;spacingTop=-1;spacingLeft=3;spacingRight=3;rotatable=0;labelPosition=right;points=[];portConstraint=eastwest;strokeColor=inherit;" vertex="1" parent="PvKAuGmHZ8P36Zsu5YNj-31">
          <mxGeometry y="60" width="160" height="10" as="geometry" />
        </mxCell>
        <mxCell id="PvKAuGmHZ8P36Zsu5YNj-34" value="&lt;div&gt;+ salvarMusica();&lt;/div&gt;+ tocar();&lt;div&gt;+ pausar();&lt;/div&gt;&lt;div&gt;+ selecionarMusica(String Musica)&lt;/div&gt;" style="text;strokeColor=none;fillColor=none;align=left;verticalAlign=top;spacingLeft=4;spacingRight=4;overflow=hidden;rotatable=0;points=[[0,0.5],[1,0.5]];portConstraint=eastwest;whiteSpace=wrap;html=1;" vertex="1" parent="PvKAuGmHZ8P36Zsu5YNj-31">
          <mxGeometry y="70" width="160" height="90" as="geometry" />
        </mxCell>
        <mxCell id="PvKAuGmHZ8P36Zsu5YNj-35" value="AparelhoTelefonico" style="swimlane;fontStyle=1;align=center;verticalAlign=top;childLayout=stackLayout;horizontal=1;startSize=26;horizontalStack=0;resizeParent=1;resizeParentMax=0;resizeLast=0;collapsible=1;marginBottom=0;whiteSpace=wrap;html=1;" vertex="1" parent="1">
          <mxGeometry x="325" y="200" width="160" height="160" as="geometry" />
        </mxCell>
        <mxCell id="PvKAuGmHZ8P36Zsu5YNj-36" value="- Contato String" style="text;strokeColor=none;fillColor=none;align=left;verticalAlign=top;spacingLeft=4;spacingRight=4;overflow=hidden;rotatable=0;points=[[0,0.5],[1,0.5]];portConstraint=eastwest;whiteSpace=wrap;html=1;" vertex="1" parent="PvKAuGmHZ8P36Zsu5YNj-35">
          <mxGeometry y="26" width="160" height="24" as="geometry" />
        </mxCell>
        <mxCell id="PvKAuGmHZ8P36Zsu5YNj-37" value="" style="line;strokeWidth=1;fillColor=none;align=left;verticalAlign=middle;spacingTop=-1;spacingLeft=3;spacingRight=3;rotatable=0;labelPosition=right;points=[];portConstraint=eastwest;strokeColor=inherit;" vertex="1" parent="PvKAuGmHZ8P36Zsu5YNj-35">
          <mxGeometry y="50" width="160" height="8" as="geometry" />
        </mxCell>
        <mxCell id="PvKAuGmHZ8P36Zsu5YNj-38" value="+redeMovelDisponível(): boolean&lt;div&gt;+ ligar();&amp;nbsp; void&lt;/div&gt;&lt;div&gt;+ atender(); void&lt;/div&gt;&lt;div&gt;+ iniciarCorreioVoz(); void&lt;/div&gt;" style="text;strokeColor=none;fillColor=none;align=left;verticalAlign=top;spacingLeft=4;spacingRight=4;overflow=hidden;rotatable=0;points=[[0,0.5],[1,0.5]];portConstraint=eastwest;whiteSpace=wrap;html=1;" vertex="1" parent="PvKAuGmHZ8P36Zsu5YNj-35">
          <mxGeometry y="58" width="160" height="102" as="geometry" />
        </mxCell>
        <mxCell id="PvKAuGmHZ8P36Zsu5YNj-39" value="NavegadorInternet" style="swimlane;fontStyle=1;align=center;verticalAlign=top;childLayout=stackLayout;horizontal=1;startSize=26;horizontalStack=0;resizeParent=1;resizeParentMax=0;resizeLast=0;collapsible=1;marginBottom=0;whiteSpace=wrap;html=1;" vertex="1" parent="1">
          <mxGeometry x="540" y="200" width="160" height="106" as="geometry" />
        </mxCell>
        <mxCell id="PvKAuGmHZ8P36Zsu5YNj-41" value="" style="line;strokeWidth=1;fillColor=none;align=left;verticalAlign=middle;spacingTop=-1;spacingLeft=3;spacingRight=3;rotatable=0;labelPosition=right;points=[];portConstraint=eastwest;strokeColor=inherit;" vertex="1" parent="PvKAuGmHZ8P36Zsu5YNj-39">
          <mxGeometry y="26" width="160" height="8" as="geometry" />
        </mxCell>
        <mxCell id="PvKAuGmHZ8P36Zsu5YNj-42" value="+ConexaoComInternet(); boolean&lt;div&gt;+exibirPagina();void&lt;/div&gt;&lt;div&gt;+adicionarNovaAba(); void&lt;/div&gt;&lt;div&gt;+adicionarPagina(); void&lt;/div&gt;" style="text;strokeColor=none;fillColor=none;align=left;verticalAlign=top;spacingLeft=4;spacingRight=4;overflow=hidden;rotatable=0;points=[[0,0.5],[1,0.5]];portConstraint=eastwest;whiteSpace=wrap;html=1;" vertex="1" parent="PvKAuGmHZ8P36Zsu5YNj-39">
          <mxGeometry y="34" width="160" height="72" as="geometry" />
        </mxCell>
        <mxCell id="PvKAuGmHZ8P36Zsu5YNj-43" value="&lt;p style=&quot;margin:0px;margin-top:6px;text-align:center;&quot;&gt;&lt;b&gt;Musica&lt;/b&gt;&lt;/p&gt;&lt;hr size=&quot;1&quot; style=&quot;border-style:solid;&quot;&gt;&lt;p style=&quot;margin:0px;margin-left:8px;&quot;&gt;+ Nome: String&lt;br&gt;+ caminho: String&lt;/p&gt;" style="align=left;overflow=fill;html=1;dropTarget=0;whiteSpace=wrap;" vertex="1" parent="1">
          <mxGeometry x="20" y="420" width="110" height="70" as="geometry" />
        </mxCell>
        <mxCell id="PvKAuGmHZ8P36Zsu5YNj-44" value="" style="shape=component;jettyWidth=8;jettyHeight=4;" vertex="1" parent="PvKAuGmHZ8P36Zsu5YNj-43">
          <mxGeometry x="1" width="20" height="20" relative="1" as="geometry">
            <mxPoint x="-24" y="4" as="offset" />
          </mxGeometry>
        </mxCell>
        <mxCell id="PvKAuGmHZ8P36Zsu5YNj-45" value="&lt;p style=&quot;margin:0px;margin-top:6px;text-align:center;&quot;&gt;&lt;b&gt;Contato&lt;/b&gt;&lt;/p&gt;&lt;p style=&quot;margin:0px;margin-left:8px;&quot;&gt;+ Nome: String&lt;br&gt;+ Numero: String&lt;/p&gt;" style="align=left;overflow=fill;html=1;dropTarget=0;whiteSpace=wrap;" vertex="1" parent="1">
          <mxGeometry x="280" y="410" width="120" height="60" as="geometry" />
        </mxCell>
        <mxCell id="PvKAuGmHZ8P36Zsu5YNj-46" value="" style="shape=component;jettyWidth=8;jettyHeight=4;" vertex="1" parent="PvKAuGmHZ8P36Zsu5YNj-45">
          <mxGeometry x="1" width="20" height="20" relative="1" as="geometry">
            <mxPoint x="-24" y="4" as="offset" />
          </mxGeometry>
        </mxCell>
        <mxCell id="PvKAuGmHZ8P36Zsu5YNj-47" value="name" style="endArrow=block;endFill=1;html=1;edgeStyle=orthogonalEdgeStyle;align=left;verticalAlign=top;rounded=0;entryX=0.347;entryY=-0.009;entryDx=0;entryDy=0;entryPerimeter=0;" edge="1" parent="1" target="PvKAuGmHZ8P36Zsu5YNj-43">
          <mxGeometry x="-1" relative="1" as="geometry">
            <mxPoint x="130" y="360" as="sourcePoint" />
            <mxPoint x="290" y="360" as="targetPoint" />
          </mxGeometry>
        </mxCell>
        <mxCell id="PvKAuGmHZ8P36Zsu5YNj-48" value="1" style="edgeLabel;resizable=0;html=1;align=left;verticalAlign=bottom;" connectable="0" vertex="1" parent="PvKAuGmHZ8P36Zsu5YNj-47">
          <mxGeometry x="-1" relative="1" as="geometry" />
        </mxCell>
        <mxCell id="PvKAuGmHZ8P36Zsu5YNj-49" value="name" style="endArrow=block;endFill=1;html=1;edgeStyle=orthogonalEdgeStyle;align=left;verticalAlign=top;rounded=0;exitX=0.111;exitY=1.043;exitDx=0;exitDy=0;exitPerimeter=0;entryX=0.25;entryY=0;entryDx=0;entryDy=0;" edge="1" parent="1" source="PvKAuGmHZ8P36Zsu5YNj-38" target="PvKAuGmHZ8P36Zsu5YNj-45">
          <mxGeometry x="-1" relative="1" as="geometry">
            <mxPoint x="340" y="390" as="sourcePoint" />
            <mxPoint x="500" y="390" as="targetPoint" />
          </mxGeometry>
        </mxCell>
        <mxCell id="PvKAuGmHZ8P36Zsu5YNj-50" value="1" style="edgeLabel;resizable=0;html=1;align=left;verticalAlign=bottom;" connectable="0" vertex="1" parent="PvKAuGmHZ8P36Zsu5YNj-49">
          <mxGeometry x="-1" relative="1" as="geometry" />
        </mxCell>
        <mxCell id="PvKAuGmHZ8P36Zsu5YNj-51" value="&lt;p style=&quot;margin:0px;margin-top:6px;text-align:center;&quot;&gt;&lt;b&gt;Walkman&lt;/b&gt;&lt;/p&gt;&lt;hr size=&quot;1&quot; style=&quot;border-style:solid;&quot;&gt;&lt;p style=&quot;margin:0px;margin-left:8px;&quot;&gt;&lt;br&gt;&lt;/p&gt;" style="align=left;overflow=fill;html=1;dropTarget=0;whiteSpace=wrap;" vertex="1" parent="1">
          <mxGeometry x="100" y="500" width="110" height="50" as="geometry" />
        </mxCell>
        <mxCell id="PvKAuGmHZ8P36Zsu5YNj-52" value="" style="shape=component;jettyWidth=8;jettyHeight=4;" vertex="1" parent="PvKAuGmHZ8P36Zsu5YNj-51">
          <mxGeometry x="1" width="20" height="20" relative="1" as="geometry">
            <mxPoint x="-24" y="4" as="offset" />
          </mxGeometry>
        </mxCell>
        <mxCell id="PvKAuGmHZ8P36Zsu5YNj-53" value="&lt;p style=&quot;margin:0px;margin-top:6px;text-align:center;&quot;&gt;Discman&lt;/p&gt;" style="align=left;overflow=fill;html=1;dropTarget=0;whiteSpace=wrap;" vertex="1" parent="1">
          <mxGeometry x="170" y="560" width="120" height="30" as="geometry" />
        </mxCell>
        <mxCell id="PvKAuGmHZ8P36Zsu5YNj-54" value="" style="shape=component;jettyWidth=8;jettyHeight=4;" vertex="1" parent="PvKAuGmHZ8P36Zsu5YNj-53">
          <mxGeometry x="1" width="20" height="20" relative="1" as="geometry">
            <mxPoint x="-24" y="4" as="offset" />
          </mxGeometry>
        </mxCell>
        <mxCell id="PvKAuGmHZ8P36Zsu5YNj-55" value="name" style="endArrow=block;endFill=1;html=1;edgeStyle=orthogonalEdgeStyle;align=left;verticalAlign=top;rounded=0;exitX=0.683;exitY=1.058;exitDx=0;exitDy=0;exitPerimeter=0;" edge="1" parent="1" source="PvKAuGmHZ8P36Zsu5YNj-34">
          <mxGeometry x="-1" relative="1" as="geometry">
            <mxPoint x="160" y="420" as="sourcePoint" />
            <mxPoint x="160" y="500" as="targetPoint" />
            <Array as="points">
              <mxPoint x="160" y="365" />
              <mxPoint x="160" y="430" />
              <mxPoint x="161" y="430" />
            </Array>
          </mxGeometry>
        </mxCell>
        <mxCell id="PvKAuGmHZ8P36Zsu5YNj-56" value="1" style="edgeLabel;resizable=0;html=1;align=left;verticalAlign=bottom;" connectable="0" vertex="1" parent="PvKAuGmHZ8P36Zsu5YNj-55">
          <mxGeometry x="-1" relative="1" as="geometry" />
        </mxCell>
        <mxCell id="PvKAuGmHZ8P36Zsu5YNj-57" value="name" style="endArrow=block;endFill=1;html=1;edgeStyle=orthogonalEdgeStyle;align=left;verticalAlign=top;rounded=0;exitX=0.758;exitY=1.04;exitDx=0;exitDy=0;exitPerimeter=0;entryX=0.427;entryY=-0.133;entryDx=0;entryDy=0;entryPerimeter=0;" edge="1" parent="1" source="PvKAuGmHZ8P36Zsu5YNj-34" target="PvKAuGmHZ8P36Zsu5YNj-53">
          <mxGeometry x="-1" relative="1" as="geometry">
            <mxPoint x="200" y="480" as="sourcePoint" />
            <mxPoint x="360" y="480" as="targetPoint" />
            <Array as="points">
              <mxPoint x="221" y="420" />
              <mxPoint x="221" y="420" />
            </Array>
          </mxGeometry>
        </mxCell>
        <mxCell id="PvKAuGmHZ8P36Zsu5YNj-58" value="1" style="edgeLabel;resizable=0;html=1;align=left;verticalAlign=bottom;" connectable="0" vertex="1" parent="PvKAuGmHZ8P36Zsu5YNj-57">
          <mxGeometry x="-1" relative="1" as="geometry" />
        </mxCell>
        <mxCell id="PvKAuGmHZ8P36Zsu5YNj-59" value="Motorola razr v3" style="swimlane;fontStyle=0;childLayout=stackLayout;horizontal=1;startSize=26;fillColor=none;horizontalStack=0;resizeParent=1;resizeParentMax=0;resizeLast=0;collapsible=1;marginBottom=0;whiteSpace=wrap;html=1;" vertex="1" parent="1">
          <mxGeometry x="414" y="420" width="140" height="52" as="geometry" />
        </mxCell>
        <mxCell id="PvKAuGmHZ8P36Zsu5YNj-63" value="Firefox" style="swimlane;fontStyle=0;childLayout=stackLayout;horizontal=1;startSize=26;fillColor=none;horizontalStack=0;resizeParent=1;resizeParentMax=0;resizeLast=0;collapsible=1;marginBottom=0;whiteSpace=wrap;html=1;" vertex="1" parent="1">
          <mxGeometry x="580" y="440" width="140" height="52" as="geometry" />
        </mxCell>
        <mxCell id="PvKAuGmHZ8P36Zsu5YNj-67" value="Crhome" style="swimlane;fontStyle=0;childLayout=stackLayout;horizontal=1;startSize=26;fillColor=none;horizontalStack=0;resizeParent=1;resizeParentMax=0;resizeLast=0;collapsible=1;marginBottom=0;whiteSpace=wrap;html=1;" vertex="1" parent="1">
          <mxGeometry x="680" y="320" width="140" height="52" as="geometry" />
        </mxCell>
        <mxCell id="PvKAuGmHZ8P36Zsu5YNj-71" value="name" style="endArrow=block;endFill=1;html=1;edgeStyle=orthogonalEdgeStyle;align=left;verticalAlign=top;rounded=0;exitX=0.661;exitY=1.012;exitDx=0;exitDy=0;exitPerimeter=0;entryX=0.457;entryY=0.012;entryDx=0;entryDy=0;entryPerimeter=0;" edge="1" parent="1" source="PvKAuGmHZ8P36Zsu5YNj-38" target="PvKAuGmHZ8P36Zsu5YNj-59">
          <mxGeometry x="-1" relative="1" as="geometry">
            <mxPoint x="430" y="380" as="sourcePoint" />
            <mxPoint x="590" y="380" as="targetPoint" />
            <Array as="points">
              <mxPoint x="478" y="361" />
            </Array>
          </mxGeometry>
        </mxCell>
        <mxCell id="PvKAuGmHZ8P36Zsu5YNj-72" value="1" style="edgeLabel;resizable=0;html=1;align=left;verticalAlign=bottom;" connectable="0" vertex="1" parent="PvKAuGmHZ8P36Zsu5YNj-71">
          <mxGeometry x="-1" relative="1" as="geometry" />
        </mxCell>
        <mxCell id="PvKAuGmHZ8P36Zsu5YNj-73" value="name" style="endArrow=block;endFill=1;html=1;edgeStyle=orthogonalEdgeStyle;align=left;verticalAlign=top;rounded=0;exitX=0.278;exitY=1.033;exitDx=0;exitDy=0;exitPerimeter=0;entryX=0.25;entryY=0;entryDx=0;entryDy=0;" edge="1" parent="1" source="PvKAuGmHZ8P36Zsu5YNj-42" target="PvKAuGmHZ8P36Zsu5YNj-63">
          <mxGeometry x="-1" relative="1" as="geometry">
            <mxPoint x="570" y="370" as="sourcePoint" />
            <mxPoint x="730" y="370" as="targetPoint" />
            <Array as="points">
              <mxPoint x="615" y="308" />
            </Array>
          </mxGeometry>
        </mxCell>
        <mxCell id="PvKAuGmHZ8P36Zsu5YNj-74" value="1" style="edgeLabel;resizable=0;html=1;align=left;verticalAlign=bottom;" connectable="0" vertex="1" parent="PvKAuGmHZ8P36Zsu5YNj-73">
          <mxGeometry x="-1" relative="1" as="geometry" />
        </mxCell>
        <mxCell id="PvKAuGmHZ8P36Zsu5YNj-75" value="name" style="endArrow=block;endFill=1;html=1;edgeStyle=orthogonalEdgeStyle;align=left;verticalAlign=top;rounded=0;entryX=0.5;entryY=0;entryDx=0;entryDy=0;" edge="1" parent="1" target="PvKAuGmHZ8P36Zsu5YNj-67">
          <mxGeometry x="-1" relative="1" as="geometry">
            <mxPoint x="700" y="260" as="sourcePoint" />
            <mxPoint x="860" y="260" as="targetPoint" />
            <Array as="points">
              <mxPoint x="701" y="260" />
              <mxPoint x="701" y="291" />
              <mxPoint x="750" y="291" />
            </Array>
          </mxGeometry>
        </mxCell>
        <mxCell id="PvKAuGmHZ8P36Zsu5YNj-76" value="1" style="edgeLabel;resizable=0;html=1;align=left;verticalAlign=bottom;" connectable="0" vertex="1" parent="PvKAuGmHZ8P36Zsu5YNj-75">
          <mxGeometry x="-1" relative="1" as="geometry" />
        </mxCell>
        <mxCell id="PvKAuGmHZ8P36Zsu5YNj-77" value="Motorola 3310" style="swimlane;fontStyle=0;childLayout=stackLayout;horizontal=1;startSize=26;fillColor=none;horizontalStack=0;resizeParent=1;resizeParentMax=0;resizeLast=0;collapsible=1;marginBottom=0;whiteSpace=wrap;html=1;" vertex="1" parent="1">
          <mxGeometry x="335" y="530" width="140" height="52" as="geometry" />
        </mxCell>
        <mxCell id="PvKAuGmHZ8P36Zsu5YNj-81" value="name" style="endArrow=block;endFill=1;html=1;edgeStyle=orthogonalEdgeStyle;align=left;verticalAlign=top;rounded=0;entryX=0.5;entryY=0;entryDx=0;entryDy=0;" edge="1" parent="1" target="PvKAuGmHZ8P36Zsu5YNj-77">
          <mxGeometry x="-1" relative="1" as="geometry">
            <mxPoint x="390" y="360" as="sourcePoint" />
            <mxPoint x="550" y="360" as="targetPoint" />
            <Array as="points">
              <mxPoint x="410" y="360" />
              <mxPoint x="410" y="446" />
              <mxPoint x="405" y="446" />
            </Array>
          </mxGeometry>
        </mxCell>
        <mxCell id="PvKAuGmHZ8P36Zsu5YNj-82" value="1" style="edgeLabel;resizable=0;html=1;align=left;verticalAlign=bottom;" connectable="0" vertex="1" parent="PvKAuGmHZ8P36Zsu5YNj-81">
          <mxGeometry x="-1" relative="1" as="geometry" />
        </mxCell>
      </root>
    </mxGraphModel>
  </diagram>
</mxfile>
